{"title":"Doktor House - S01E07 (2004) [DVDRip XviD-torentup] [Lektor PL]","uid":12605913,"size":199520597,"categoryP":"video","categoryS":"tv_shows","magnet":"?xt=urn:btih:34b8b8dc3f45e6dbcb6c0ad3dcf50635f714b65a&amp;dn=Doktor+House+-+S01E07+%282004%29+%5BDVDRip+XviD-torentup%5D+%5BLektor+PL%5D&amp;tr=udp%3A%2F%2Ftracker.leechers-paradise.org%3A6969&amp;tr=udp%3A%2F%2Fzer0day.ch%3A1337&amp;tr=udp%3A%2F%2Fopen.demonii.com%3A1337&amp;tr=udp%3A%2F%2Ftracker.coppersurfer.tk%3A6969&amp;tr=udp%3A%2F%2Fexodus.desync.com%3A6969","seeders":0,"leechers":1,"uploader":"torentup","files":5,"time":1445384015,"description":"=====================\r\nINFO\r\n================\r\n\r\n\r\nProdukcja: USA\r\nGatunek: Dramat, Komedia\r\nData premiery: 2004-11-16\r\nTwórca: David Shore\r\nReżyseria: Keith Gordon, Deran Sarafian\r\nScenariusz: Peter Blake, Sara B. Cooper\r\nZdjęcia: James Dillinger\r\nMuzyka: Jason Derlatka\r\nCzas trwania: 45\r\n\r\n\r\n=====================\r\nOPIS\r\n====================\r\n\r\nFabuła serialu toczy się wokół doktora Gregorego House. W każdym odcinku doktor House wraz ze swoim zespołem (Eric Foreman, Chris Taub, Lawrence Kutner, Remy Hadley) próbuje zdiagnozować i wyleczyć pacjentów przejawiających rozmaite objawy, niewyjaśnione wcześniej przez innych lekarzy. Oprócz tego serial ukazuje także prywatne życie House i członków jego zespołu.\r\n=====================\r\nOBSADA\r\n====================\r\n\r\nHugh Laurie (doktor Gregory House)\r\nLisa Edelstein (dr Lisa Cuddy )\r\nJesse Spencer (dr Robert Chase)\r\nOmar Epps (dr Eric Foreman )\r\nOlivia Wilde (dr Remy &quot;Trzynastka&quot; Hadley )\r\n\r\n=====================\r\nDANE TECHNICZNE\r\n=====================\r\n\r\nDane przykładowego odcinka s01e01\r\n\r\nFormat : AVI\r\nFormat/Info : Audio Video Interleave\r\nFile size : 348 MiB\r\nDuration : 44mn 0s\r\nOverall bit rate : 1 105 Kbps\r\nWriting application : VirtualDubMod 1.5.10.2 (build 2540/release)\r\nWriting library : VirtualDubMod build 2540/release\r\n\r\nVideo\r\nID : 0\r\nFormat : MPEG-4 Visual\r\nFormat profile : Advanced   \r\nFormat settings, BVOP : Yes\r\nFormat settings, QPel : No\r\nFormat settings, GMC : No warppoints\r\nFormat settings, Matrix : Default (H.263)\r\nCodec ID : XVID\r\nCodec ID/Hint : XviD\r\nDuration : 44mn 0s\r\nBit rate : 968 Kbps\r\nWidth : 624 pixels\r\nHeight : 352 pixels\r\nDisplay aspect ratio : 16:9\r\nFrame rate : 23.976 fps\r\nColor space : YUV\r\nChroma subsampling : 4:2:0\r\nBit depth : 8 bits\r\nScan type : Progressive\r\nCompression mode : Lossy\r\nBits/(Pixel*Frame) : 0.184\r\nStream size : 305 MiB (88%)\r\nWriting library : XviD 1.0.3 (UTC 2004-12-20)\r\n\r\nAudio\r\nID : 1\r\nFormat : MPEG Audio\r\nFormat version : Version 1\r\nFormat profile : Layer 3\r\nMode : Joint stereo\r\nMode extension : MS Stereo\r\nCodec ID : 55\r\nCodec ID/Hint : MP3\r\nDuration : 44mn 0s\r\nBit rate mode : Constant\r\nBit rate : 128 Kbps\r\nChannel(s) : 2 channels\r\nSampling rate : 48.0 KHz\r\nCompression mode : Lossy\r\nStream size : 40.3 MiB (12%)\r\nAlignment : Aligned on interleaves\r\nInterleave, duration : 42 ms (1.00 video frame)\r\nInterleave, preload duration : 504 ms","torrent":{"xt":"urn:btih:34b8b8dc3f45e6dbcb6c0ad3dcf50635f714b65a","amp;dn":"Doktor+House+-+S01E07+%282004%29+%5BDVDRip+XviD-torentup%5D+%5BLektor+PL%5D","amp;tr":["udp%3A%2F%2Ftracker.leechers-paradise.org%3A6969","udp%3A%2F%2Fzer0day.ch%3A1337","udp%3A%2F%2Fopen.demonii.com%3A1337","udp%3A%2F%2Ftracker.coppersurfer.tk%3A6969","udp%3A%2F%2Fexodus.desync.com%3A6969"],"infoHash":"34b8b8dc3f45e6dbcb6c0ad3dcf50635f714b65a","infoHashBuffer":{"type":"Buffer","data":[52,184,184,220,63,69,230,219,203,108,10,211,220,245,6,53,247,20,182,90]},"announce":[],"urlList":[]}}